<?xml version="1.0" standalone="no"?>
<!DOCTYPE svg PUBLIC "-//W3C//DTD SVG 20010904//EN"
 "http://www.w3.org/TR/2001/REC-SVG-20010904/DTD/svg10.dtd">
<svg version="1.0" xmlns="http://www.w3.org/2000/svg"
 width="512.000000pt" height="512.000000pt" viewBox="0 0 512.000000 512.000000"
 preserveAspectRatio="xMidYMid meet">
<metadata>
Created by potrace 1.16, written by Peter Selinger 2001-2019
</metadata>
<g transform="translate(0.000000,512.000000) scale(0.100000,-0.100000)"
fill="#000000" stroke="none">
<path d="M0 5084 l0 -35 58 32 c31 18 59 34 61 36 2 1 -23 3 -57 3 l-62 0 0
-36z"/>
<path d="M144 5112 c2 -4 0 -28 -5 -53 -12 -56 -58 -114 -104 -130 -31 -11
-35 -17 -35 -47 l0 -34 43 44 c45 45 113 126 160 191 l28 37 -46 0 c-25 0 -44
-4 -41 -8z"/>
<path d="M291 5078 c-35 -117 -122 -227 -233 -294 -57 -35 -58 -36 -58 -80 0
-51 -5 -52 86 12 79 55 109 95 173 221 28 56 64 117 81 136 16 19 30 37 30 41
0 3 -15 6 -33 6 -31 0 -35 -3 -46 -42z"/>
<path d="M386 5050 c-9 -38 -25 -94 -36 -124 -45 -118 -183 -274 -296 -333
-34 -18 -54 -34 -54 -45 0 -10 3 -18 6 -18 13 0 128 35 264 80 230 77 293 77
209 0 -56 -51 -135 -93 -229 -120 -41 -12 -102 -30 -135 -40 -33 -10 -72 -21
-87 -24 -26 -6 -28 -10 -28 -54 l0 -47 103 0 c99 0 106 -2 178 -37 42 -21 96
-56 120 -78 l44 -41 -40 5 c-38 5 -37 4 35 -36 41 -23 98 -57 125 -76 28 -20
44 -28 36 -18 -8 9 -12 19 -9 21 17 17 187 -68 248 -125 48 -45 50 -99 3 -100
-6 0 -60 44 -120 97 -59 53 -94 81 -76 62 35 -37 53 -77 53 -116 l0 -25 -29
24 c-15 13 -72 48 -125 78 -53 29 -115 69 -138 89 l-43 36 23 -32 c29 -41 82
-82 161 -124 68 -35 118 -79 131 -114 13 -35 23 -133 16 -161 -6 -23 -11 -26
-36 -20 -17 3 -76 28 -132 56 -120 59 -175 111 -230 216 -39 74 -73 179 -83
257 l-6 47 -105 0 -104 0 0 -35 c0 -28 7 -42 34 -66 35 -30 102 -126 94 -134
-2 -2 -27 3 -56 12 -28 9 -55 13 -59 9 -5 -4 -9 -86 -11 -181 -4 -168 -3 -175
19 -204 30 -41 31 -97 1 -121 -22 -18 -30 -50 -13 -50 5 0 21 14 35 31 30 36
35 93 9 121 -22 24 -26 69 -13 153 11 69 52 176 75 195 18 15 30 -4 50 -75 23
-76 16 -183 -18 -285 -39 -117 -123 -305 -136 -302 -7 1 -11 -27 -11 -90 l1
-93 23 55 c13 30 27 79 31 109 10 74 36 127 106 220 52 70 125 141 143 141 3
0 6 -17 6 -38 0 -96 -88 -269 -248 -492 -34 -47 -62 -89 -62 -94 0 -5 17 15
38 45 21 30 66 91 99 137 34 45 92 133 129 195 96 160 164 221 164 149 0 -43
-262 -457 -355 -562 -13 -15 -25 -45 -29 -74 -3 -26 -15 -65 -27 -86 -30 -53
-19 -70 15 -22 30 45 159 152 182 152 8 0 14 -6 14 -14 0 -37 -27 -76 -96
-139 -41 -38 -88 -89 -104 -112 l-30 -43 30 14 c16 9 47 14 67 12 35 -3 38 -5
36 -31 -3 -45 -47 -130 -92 -177 -22 -24 -41 -49 -41 -57 0 -17 -4 -17 71 13
90 37 194 53 339 54 180 0 282 -14 357 -51 72 -34 144 -110 170 -177 14 -39
15 -46 0 -82 l-15 -40 66 -1 c47 0 98 -10 171 -33 l104 -33 -44 -24 c-26 -14
-56 -43 -74 -71 -17 -25 -42 -56 -55 -68 -24 -20 -24 -21 -3 -15 104 29 361
34 494 10 97 -17 217 -56 266 -86 18 -11 33 -22 33 -23 0 -2 -30 -1 -67 1 -45
4 -89 -1 -132 -12 -35 -9 -66 -14 -68 -11 -11 11 7 37 39 56 18 11 27 20 20
20 -35 0 -107 -53 -212 -156 -125 -122 -199 -168 -262 -162 -29 3 -33 7 -36
35 -3 26 5 39 40 76 26 26 63 51 93 63 55 20 117 54 98 54 -6 0 -59 -11 -117
-25 -156 -38 -263 -55 -341 -55 -69 0 -70 1 -47 18 12 10 52 33 88 52 76 40
72 52 -18 58 -39 2 -67 10 -74 19 -10 11 -15 6 -26 -29 -11 -31 -21 -44 -37
-46 -15 -3 -21 -8 -17 -19 3 -8 6 -26 6 -40 0 -22 3 -24 26 -19 l27 7 -5 -59
c-9 -99 -66 -202 -111 -202 -19 0 -20 5 -13 78 3 42 9 91 11 107 5 29 5 30 -6
5 -6 -14 -14 -66 -16 -116 l-6 -90 -36 -21 c-20 -12 -76 -43 -125 -68 -48 -25
-86 -49 -83 -51 3 -3 15 0 27 6 40 21 32 3 -17 -39 -29 -25 -69 -48 -102 -57
-59 -18 -145 -23 -158 -11 -4 5 8 22 27 39 21 18 27 27 15 22 -11 -4 -75 -9
-142 -12 l-123 -4 0 -34 c0 -32 3 -35 110 -90 166 -85 259 -180 260 -267 0
-28 -1 -27 -47 23 -39 41 -56 52 -88 57 -47 6 -93 -10 -102 -34 -28 -81 -70
-170 -99 -207 -24 -32 -34 -55 -34 -81 0 -31 3 -36 18 -30 93 37 254 42 355
11 52 -15 94 -46 78 -55 -5 -4 -63 -2 -128 3 -127 10 -195 1 -278 -34 l-45
-19 0 -74 0 -74 119 -62 c117 -60 177 -102 115 -81 -16 6 -75 18 -131 28
l-103 18 0 -70 0 -71 82 0 c61 0 82 -3 81 -12 -4 -17 13 -16 40 1 12 8 46 18
76 22 51 7 53 6 46 -15 -6 -20 -3 -21 55 -21 l61 0 -54 77 c-57 81 -163 271
-155 278 6 6 193 -61 250 -90 87 -44 172 -107 251 -187 66 -67 82 -79 106 -76
28 3 28 4 -63 114 -50 61 -119 147 -154 192 -56 71 -203 216 -342 335 -69 59
-2 17 115 -73 55 -42 148 -109 206 -148 149 -99 254 -219 315 -361 l27 -61 56
0 57 0 -9 92 c-10 103 -15 113 -102 198 l-58 55 6 -35 c3 -19 8 -51 11 -70 4
-19 -12 18 -35 83 -27 78 -46 117 -55 117 -8 0 -21 15 -29 33 -16 40 -34 188
-27 238 4 34 2 37 -38 53 -24 9 -44 15 -46 13 -3 -2 3 -32 12 -66 8 -35 13
-68 11 -76 -3 -7 -2 -16 3 -21 11 -12 74 -184 69 -188 -4 -4 -87 89 -155 174
-33 41 -71 126 -61 136 19 19 82 -22 119 -76 12 -17 10 -7 -6 30 -13 30 -30
82 -38 115 -9 33 -32 84 -51 113 -38 55 -54 119 -43 175 l6 32 -15 -25 c-8
-14 -19 -50 -25 -80 -17 -83 -29 -108 -71 -141 -58 -46 -73 -35 -67 49 3 37
14 88 25 114 26 57 94 127 132 134 16 3 52 25 80 49 45 36 151 105 185 119 7
3 6 8 -3 14 -37 26 195 80 379 89 132 7 254 -8 339 -39 l55 -21 -54 -24 c-122
-54 -363 -100 -459 -88 -25 4 -76 15 -112 26 l-67 19 -32 -30 c-17 -16 -58
-46 -91 -66 l-59 -36 16 -28 c17 -27 14 -60 -5 -60 -5 0 -18 14 -29 31 -28 45
-35 24 -27 -90 l7 -99 43 -42 c39 -38 42 -40 38 -17 -6 33 21 128 46 158 l19
24 11 -45 c6 -25 27 -94 46 -153 42 -131 44 -188 10 -272 -14 -33 -25 -61 -25
-63 0 -2 26 11 58 29 31 18 54 29 50 24 -4 -4 -1 -14 7 -22 23 -23 18 -33 -25
-50 -22 -9 -40 -19 -40 -22 0 -3 25 -21 55 -39 35 -21 62 -47 75 -70 l19 -37
-6 35 c-3 19 -14 58 -24 85 -24 65 -24 78 4 111 19 22 29 26 51 20 57 -14 124
-120 133 -211 5 -43 1 -63 -21 -111 -15 -33 -37 -69 -49 -82 -20 -21 -22 -22
-28 -5 -5 11 -8 -1 -8 -32 -1 -27 -4 -74 -7 -102 l-7 -53 42 0 c37 0 41 2 41
25 0 38 40 134 69 167 34 38 76 41 103 8 17 -21 17 -24 2 -41 -19 -21 -94 -52
-114 -47 -15 3 -28 -31 -29 -79 -1 -29 2 -33 25 -33 14 0 33 9 43 21 15 18 20
19 44 8 15 -7 27 -16 27 -21 0 -4 9 -8 20 -8 19 0 20 5 14 143 -7 162 1 226
47 374 18 57 30 105 28 107 -9 8 -141 -17 -145 -29 -3 -7 2 -62 10 -123 16
-115 13 -145 -19 -172 -21 -17 -92 -121 -105 -152 l-9 -23 0 22 c-1 31 56 208
80 247 39 63 15 141 -58 192 -21 14 -73 48 -116 75 -81 51 -137 119 -137 166
0 47 55 21 182 -87 l53 -45 -44 50 c-83 95 -100 165 -55 231 21 30 25 45 20
73 -5 34 26 174 45 194 9 12 68 -75 91 -135 21 -57 24 -98 16 -273 -4 -77 -4
-99 1 -55 10 103 48 172 113 206 31 16 74 18 83 4 3 -5 -12 -40 -33 -77 -22
-38 -48 -92 -58 -122 -11 -30 -34 -70 -51 -89 -35 -37 -44 -55 -15 -30 27 24
95 56 148 69 31 8 56 22 69 38 11 14 53 58 95 98 l75 72 -55 -14 c-30 -8 -61
-15 -68 -15 -19 0 37 77 91 127 45 41 125 89 134 80 2 -3 -3 -29 -11 -58 -9
-29 -16 -60 -15 -68 0 -9 8 11 18 44 26 91 68 160 137 224 65 61 185 139 295
191 78 37 68 38 -47 4 -118 -34 -220 -89 -330 -178 -50 -40 -116 -85 -145 -99
-71 -35 -169 -59 -221 -55 l-41 3 62 77 c81 101 145 151 268 209 160 76 233
93 388 90 145 -3 166 -4 180 -13 6 -3 30 -9 54 -13 l44 -7 -48 -27 c-82 -44
-114 -141 -115 -351 0 -65 -9 -163 -20 -225 -10 -60 -17 -111 -15 -113 2 -2
13 41 24 95 12 54 43 188 70 298 l48 200 22 -91 c24 -106 26 -173 7 -265 -35
-165 -127 -322 -263 -448 -47 -45 -87 -80 -89 -79 -1 2 26 84 61 183 87 249
84 235 45 191 -18 -20 -46 -44 -61 -52 l-29 -15 0 53 c1 70 17 113 69 178 60
76 69 97 86 207 10 59 27 123 45 161 25 53 26 61 10 49 -34 -24 -94 -99 -161
-202 -36 -55 -102 -139 -146 -187 -79 -85 -130 -148 -119 -148 23 0 135 82
179 130 l55 61 -8 -43 c-5 -24 -16 -97 -25 -163 -22 -163 -38 -224 -91 -333
-32 -67 -63 -112 -111 -162 -36 -39 -68 -68 -71 -66 -5 6 36 181 50 211 22 47
-34 -31 -81 -114 -27 -47 -74 -126 -105 -174 -49 -78 -77 -138 -100 -214 -6
-20 -4 -23 17 -23 20 0 25 6 30 37 9 56 48 126 80 143 26 14 29 14 43 -5 17
-22 12 -57 -17 -124 -22 -50 -15 -69 10 -31 9 14 35 48 59 77 48 60 52 70 18
47 -25 -15 -25 -15 -32 21 -9 51 6 78 104 180 92 97 105 99 132 25 8 -23 18
-41 23 -41 4 1 22 2 40 2 31 1 31 2 5 8 -27 6 -27 6 -12 38 9 18 56 66 106
108 166 142 268 323 313 556 l14 78 -30 67 c-43 98 -65 189 -51 220 9 19 19
24 51 24 52 0 89 -41 168 -190 34 -63 77 -136 95 -162 36 -50 146 -197 160
-213 11 -13 -88 208 -142 315 -30 60 -63 106 -113 157 -39 40 -67 73 -63 73
28 0 162 -86 223 -143 128 -122 161 -192 174 -376 4 -68 11 -126 14 -129 3 -3
15 4 28 16 29 27 80 48 139 57 90 14 98 -10 20 -63 -24 -16 -64 -49 -89 -73
-43 -41 -45 -46 -39 -86 3 -24 2 -43 -2 -43 -18 0 -55 35 -68 64 -15 35 -19
21 -4 -18 8 -22 3 -33 -34 -83 -58 -77 -110 -173 -136 -253 -23 -71 -38 -246
-22 -269 16 -23 29 -4 36 55 9 82 59 200 123 295 31 46 105 157 165 247 59 89
111 162 115 162 14 0 -7 -170 -31 -245 -31 -97 -183 -410 -232 -477 l-36 -48
45 0 c25 0 64 9 88 20 26 11 66 20 97 20 46 0 55 -3 59 -20 4 -16 14 -20 44
-20 22 0 39 3 39 8 0 4 -10 23 -21 42 -29 48 -36 138 -15 193 20 53 78 112
100 104 13 -5 15 -16 11 -49 -5 -39 -3 -36 19 25 14 38 28 95 32 128 4 32 10
56 15 54 13 -9 153 -177 204 -246 49 -66 64 -85 50 -59 -26 46 -93 137 -170
230 -109 130 -117 143 -113 172 3 20 14 12 102 -72 187 -181 263 -309 291
-492 5 -29 11 -38 25 -38 29 0 28 10 -15 197 -7 30 15 30 42 0 22 -23 37 -69
48 -149 l6 -48 94 0 94 0 -14 41 c-19 54 -99 184 -141 232 -40 43 -42 53 -13
62 34 11 84 -47 143 -165 29 -58 58 -120 64 -138 12 -35 42 -44 42 -12 0 11 4
20 10 20 16 0 60 -23 60 -32 0 -4 14 -8 30 -8 30 0 30 0 30 58 0 31 9 94 20
140 11 46 20 95 20 110 0 19 3 23 11 15 7 -7 11 -60 11 -150 l0 -138 18 90
c11 50 32 119 47 155 24 56 28 78 28 160 -1 86 -5 104 -39 190 -36 88 -38 101
-34 175 7 132 66 208 183 236 33 8 64 25 92 50 36 33 49 39 88 39 38 0 52 -6
83 -34 20 -19 34 -37 31 -41 -6 -5 -118 -24 -240 -40 -26 -3 -55 -13 -65 -21
-18 -14 -18 -15 4 -10 12 4 31 9 42 12 28 8 25 -5 -10 -41 l-30 -31 36 -49
c19 -28 42 -76 51 -108 9 -31 22 -57 29 -57 7 0 36 -23 64 -52 52 -53 123
-181 136 -246 6 -29 4 -32 -17 -32 -19 0 -33 15 -68 78 -51 91 -109 172 -122
172 -5 0 -9 -8 -9 -17 0 -30 -58 -143 -73 -143 -23 0 -27 36 -21 160 6 105 5
120 -16 167 -12 28 -30 59 -40 68 -17 15 -19 13 -46 -41 -22 -46 -25 -59 -15
-73 32 -44 71 -143 81 -206 12 -75 8 -119 -21 -260 -10 -50 -19 -109 -19 -131
0 -33 -8 -53 -40 -95 -22 -29 -37 -55 -34 -58 2 -3 32 24 65 60 33 35 55 53
49 41 -7 -13 -28 -41 -47 -63 -19 -21 -30 -39 -24 -39 7 0 51 26 99 59 104 69
144 91 171 91 58 0 23 -50 -76 -107 -62 -37 -81 -58 -26 -30 16 9 60 26 98 38
117 39 324 30 418 -18 l27 -14 0 78 0 78 -48 16 c-144 50 -182 65 -182 71 0
17 163 28 209 13 20 -6 21 -3 21 64 0 39 -2 71 -4 71 -3 0 -16 -4 -29 -9 -19
-7 -27 -6 -30 3 -7 18 29 95 48 102 9 4 15 18 15 36 l0 30 -45 -50 c-50 -56
-129 -112 -157 -112 -34 0 -36 79 -2 181 17 54 96 146 159 186 35 21 45 34 45
54 0 23 -3 26 -27 22 -87 -15 -165 -46 -209 -84 -87 -75 -138 -88 -173 -43
-12 15 -21 37 -21 50 0 29 50 88 90 104 33 14 38 25 14 34 -29 11 -74 6 -131
-14 -31 -11 -58 -18 -60 -16 -8 7 90 69 138 87 26 10 96 30 156 43 59 14 133
33 163 44 47 16 55 23 58 46 l3 27 -48 -7 c-73 -12 -130 -7 -232 19 l-92 24
98 37 c54 20 130 43 168 51 70 15 70 15 15 10 l-55 -4 70 22 c56 18 71 27 73
44 3 22 2 22 -70 -8 -40 -16 -115 -52 -166 -80 -68 -37 -91 -45 -83 -31 5 10
17 24 25 31 9 8 13 18 9 24 -3 5 -1 7 4 4 6 -4 32 17 59 46 27 28 52 51 55 50
4 -1 17 10 30 25 l24 27 -27 -24 c-16 -14 -28 -20 -28 -13 0 14 72 72 128 102
37 21 42 28 42 59 0 35 0 35 -16 13 -9 -13 -40 -42 -69 -65 -29 -23 -83 -79
-119 -124 -37 -46 -69 -83 -72 -83 -6 0 -5 2 52 92 70 108 99 174 149 333 26
83 54 162 63 177 9 15 13 30 9 34 -3 4 -41 -10 -83 -30 -42 -20 -80 -36 -85
-36 -37 0 45 89 116 126 l55 29 -1 70 0 70 -15 -47 c-11 -35 -33 -67 -85 -120
-69 -72 -71 -73 -80 -49 -13 33 5 113 36 167 30 51 99 114 125 114 31 0 24 25
-15 54 -26 20 -35 35 -35 57 0 16 -3 29 -6 29 -4 0 -31 -21 -60 -46 -30 -25
-54 -43 -54 -40 0 15 24 55 31 51 4 -3 22 12 41 33 18 22 45 47 60 56 51 33
58 64 58 240 -1 147 -2 159 -15 134 -8 -15 -24 -82 -36 -150 -30 -183 -45
-235 -74 -274 -15 -20 -29 -33 -32 -30 -3 2 5 47 17 100 34 145 18 136 -24
-15 -20 -74 -44 -145 -51 -159 -14 -25 -14 -25 -15 13 0 21 -34 138 -75 260
-79 236 -95 307 -95 428 0 113 -29 187 -143 372 -38 61 -64 93 -68 85 -18 -34
-31 -133 -27 -211 4 -73 10 -96 45 -168 22 -46 74 -137 117 -202 75 -117 111
-185 101 -195 -3 -3 -49 39 -103 94 -106 106 -151 176 -196 302 -56 158 -55
283 5 390 27 49 29 56 18 87 -16 44 -7 52 39 36 143 -51 330 -254 438 -475 55
-114 77 -191 89 -309 4 -37 9 -66 12 -64 11 12 66 229 70 279 4 50 2 58 -16
68 -26 14 -27 40 -1 90 13 26 20 58 19 92 -1 52 -1 53 -12 21 -19 -49 -25 -49
-34 4 -11 69 -6 166 11 207 15 35 14 36 -38 118 -28 46 -71 110 -93 143 -23
33 -37 62 -32 64 27 9 101 -34 149 -85 l50 -56 0 75 0 75 -67 13 c-38 8 -110
14 -160 14 -51 0 -93 3 -93 6 0 21 79 64 135 73 35 6 117 -4 168 -20 15 -5 17
4 17 90 0 70 -3 96 -12 96 -48 1 -158 24 -199 41 -79 34 -199 179 -149 179 6
0 41 -15 79 -34 54 -28 260 -106 277 -106 2 0 4 15 4 34 l0 33 -62 6 c-55 5
-246 63 -288 88 -9 5 29 9 100 9 63 0 145 3 183 7 l67 6 0 45 c0 41 -2 44 -22
38 -120 -34 -148 -38 -243 -34 -96 5 -255 41 -255 58 0 9 93 22 305 45 220 24
215 23 215 52 0 24 -2 25 -32 18 -95 -21 -118 -24 -180 -25 -37 0 -79 5 -95
11 -27 11 -24 13 52 31 44 10 119 37 168 60 73 35 87 45 87 65 l0 23 -38 -24
c-114 -72 -258 -124 -308 -112 -23 6 -18 11 53 58 105 70 293 254 293 288 l0
25 -121 -2 c-215 -4 -337 -43 -525 -170 -69 -46 -128 -83 -130 -81 -11 12 75
114 137 162 143 112 291 166 517 188 l122 12 0 28 c0 38 -26 43 -141 23 -124
-21 -253 -65 -358 -122 -162 -87 -201 -106 -206 -101 -3 3 10 25 29 50 40 52
115 105 219 153 l72 34 -51 1 c-64 0 -156 -36 -249 -100 -39 -26 -98 -59 -133
-72 -83 -34 -207 -106 -234 -136 l-23 -25 35 25 c81 59 311 160 328 144 9 -10
-95 -111 -183 -178 -46 -35 -140 -90 -222 -130 -91 -45 -161 -86 -193 -115
l-50 -45 -1 39 c-1 57 -14 16 -33 -103 -9 -54 -20 -112 -25 -129 -17 -54 -88
-241 -105 -273 -31 -60 -16 -45 30 28 27 45 90 121 158 190 62 63 159 169 216
235 105 123 96 114 -143 -138 -76 -81 -142 -146 -144 -143 -8 8 134 202 192
265 27 29 81 76 119 102 l69 49 19 -27 c26 -41 22 -75 -17 -153 -51 -101 -141
-191 -272 -273 -96 -59 -234 -169 -270 -215 -19 -24 -15 -6 9 41 13 27 23 67
26 112 3 62 1 74 -20 106 -14 19 -28 48 -32 64 l-8 30 -94 -99 c-52 -54 -97
-96 -100 -93 -8 8 23 112 47 160 l20 38 -27 -17 c-14 -10 -50 -55 -79 -100
-85 -131 -97 -125 -36 19 21 51 49 137 60 192 60 282 105 389 147 354 9 -7 25
-33 35 -57 10 -24 33 -63 49 -88 17 -24 38 -60 46 -79 12 -30 12 -35 0 -35
-27 0 -84 64 -95 107 -15 54 -23 58 -48 25 -36 -49 -53 -90 -74 -184 -12 -51
-26 -102 -31 -113 -6 -11 9 -1 33 22 45 42 104 77 150 88 37 9 55 -16 42 -59
-10 -31 -8 -36 17 -54 15 -11 35 -38 45 -59 l19 -38 12 60 c15 71 18 177 5
156 -18 -27 -24 59 -17 218 4 98 2 213 -6 309 l-12 152 -73 0 -73 0 0 -37 c0
-64 -28 -159 -69 -240 -65 -128 -67 -129 -74 -39 -8 89 5 194 32 266 l19 50
-28 0 c-24 0 -33 -9 -58 -54 -17 -29 -56 -80 -86 -113 -55 -59 -55 -61 -36
-78 32 -29 78 -107 102 -171 17 -46 21 -81 21 -164 0 -124 -23 -228 -77 -340
-32 -67 -35 -71 -30 -35 11 75 5 140 -21 213 -14 41 -30 106 -35 145 -12 89
-12 257 -1 315 5 23 7 42 5 42 -2 0 -28 -18 -59 -39 -92 -65 -155 -64 -155 3
0 33 65 123 162 224 l51 52 -69 0 -70 0 -26 -62 c-70 -166 -109 -276 -127
-355 -11 -49 -24 -99 -30 -113 -20 -46 -1 116 24 204 12 45 25 118 28 162 4
45 13 100 20 123 l15 41 -37 0 -36 0 0 -107 c0 -107 -16 -176 -35 -157 -13 13
-28 87 -37 179 -7 73 -10 80 -30 83 -19 3 -23 -1 -22 -25 1 -28 1 -28 8 -3 6
23 8 23 14 6 4 -10 3 -33 -3 -50 -8 -26 -5 -51 21 -141 18 -62 33 -143 35
-185 l4 -75 -22 48 -23 48 -76 -103 c-42 -57 -83 -114 -92 -128 -26 -42 -59
-150 -72 -235 l-11 -80 -13 52 c-10 43 -10 66 0 125 7 40 11 82 10 93 -4 30
-55 120 -117 207 -45 65 -64 83 -112 106 -50 24 -57 32 -60 60 -2 17 1 39 6
48 8 14 13 10 31 -20 23 -37 39 -50 22 -18 -10 19 -35 142 -46 225 -8 58 -31
64 -40 10 -21 -136 -55 -213 -139 -308 -35 -41 -52 -53 -59 -46 -13 13 -16
283 -4 349 10 55 -6 55 -58 1 -22 -22 -87 -68 -144 -102 -120 -71 -204 -149
-244 -227 -24 -47 -25 -50 -5 -25 86 113 157 165 285 209 38 13 76 27 86 31
49 20 -18 -88 -80 -129 -21 -14 -78 -39 -126 -57 -138 -49 -209 -124 -233
-245 -8 -36 -9 -32 -15 42 -4 55 -14 99 -32 137 -26 57 -26 57 -71 57 -37 0
-48 -5 -64 -27 -20 -27 -20 -27 1 -70 11 -23 18 -45 15 -49 -6 -5 -50 24 -130
86 -48 37 -29 60 48 60 18 0 38 8 49 20 10 11 33 25 51 32 19 7 34 16 34 21 0
5 -30 39 -68 77 -53 53 -80 72 -129 90 -73 26 -92 44 -76 68 14 22 54 19 104
-7 49 -26 51 -20 3 10 -27 16 -32 24 -22 30 7 5 -27 9 -84 9 l-98 0 0 -38 c0
-54 26 -147 59 -217 l30 -60 -29 34 c-39 46 -96 164 -111 229 l-12 52 -64 0
-64 0 -24 -52 c-13 -29 -31 -98 -40 -153 -19 -115 -59 -220 -116 -299 -22 -31
-42 -56 -44 -56 -2 0 0 15 5 33 5 17 14 84 20 147 16 150 39 221 101 309 28
41 45 72 38 69 -8 -2 -49 -58 -93 -123 -144 -219 -322 -372 -456 -391 l-45 -7
158 160 157 161 0 101 c0 100 0 101 -24 101 -22 0 -26 -7 -40 -70z m451 -12
c-3 -8 -6 -5 -6 6 -1 11 2 17 5 13 3 -3 4 -12 1 -19z m64 -81 c44 -86 43 -135
-4 -230 -64 -129 -224 -253 -352 -273 -75 -11 -86 -2 -35 30 125 79 196 151
264 270 23 40 27 53 17 68 -16 26 -14 134 4 168 13 26 47 42 68 32 4 -2 21
-31 38 -65z m2617 -40 c52 -55 116 -269 110 -366 l-3 -45 -37 56 c-91 137
-142 290 -117 350 14 34 19 35 47 5z m1452 -32 c-41 -108 -138 -184 -330 -259
-64 -25 -216 -66 -242 -66 -7 0 50 33 127 73 142 74 215 116 215 123 0 12
-474 -226 -532 -268 -49 -34 -30 0 42 76 88 92 188 162 332 231 160 76 264
108 375 114 20 1 21 -2 13 -24z m-3862 -182 c103 -76 279 -255 321 -327 26
-44 36 -74 40 -120 l6 -61 5 87 c8 131 23 131 54 1 14 -59 29 -141 32 -180 4
-40 11 -73 15 -73 5 0 9 4 9 10 0 5 11 17 25 26 34 22 75 11 118 -33 43 -43
52 -77 34 -129 l-13 -39 71 0 c57 0 81 -5 128 -28 31 -16 55 -33 52 -38 -4 -5
1 -9 10 -9 28 0 126 -71 213 -154 45 -43 80 -81 78 -83 -2 -3 -46 21 -97 52
-110 66 -155 80 -309 95 -63 6 -131 15 -152 19 -32 8 -37 6 -42 -12 -3 -11 1
-57 9 -101 8 -45 15 -87 15 -94 0 -8 23 6 50 31 49 45 108 67 175 67 15 0 26
7 30 20 3 11 10 20 15 20 10 0 11 -3 36 -130 22 -115 55 -204 124 -335 67
-126 92 -205 88 -269 l-3 -45 -90 114 c-139 176 -196 295 -211 439 l-6 63 -37
-19 c-27 -15 -49 -18 -93 -15 -32 3 -58 2 -58 -2 0 -32 95 -284 124 -327 34
-51 123 -126 189 -161 44 -22 25 -27 -60 -14 -135 21 -341 79 -405 113 -149
79 -240 236 -263 451 -4 37 -3 67 1 67 5 0 24 -16 43 -35 18 -19 90 -64 160
-101 69 -36 141 -80 160 -97 19 -18 32 -27 30 -22 -18 42 -65 131 -72 133 -4
2 -4 9 -1 14 4 6 2 8 -4 4 -5 -3 -12 -3 -14 1 -2 5 -21 24 -43 43 -26 23 -20
14 18 -27 82 -88 73 -112 -19 -50 -59 39 -109 115 -100 151 14 55 74 50 146
-11 31 -27 42 -32 36 -18 -47 114 -46 161 4 253 22 40 40 83 40 95 0 33 -28
67 -54 67 -28 0 -42 -15 -51 -55 -13 -60 -17 -61 -41 -10 -15 32 -24 42 -24
29 0 -36 28 -114 55 -156 35 -52 26 -59 -14 -11 -32 38 -77 125 -166 323 -110
244 -95 222 -267 410 l-59 64 89 -149 c49 -83 114 -188 144 -235 31 -47 70
-114 87 -149 l32 -63 -43 23 c-60 33 -246 222 -286 291 -82 140 -135 299 -148
449 l-7 84 32 -33 c18 -18 67 -58 109 -89z m1068 37 c-7 -25 -16 -81 -20 -125
-4 -44 -19 -118 -34 -165 -24 -77 -27 -82 -33 -55 -20 91 8 231 73 358 25 50
31 44 14 -13z m2142 23 c5 -37 -34 -111 -94 -173 -62 -65 -78 -73 -68 -35 4
15 2 25 -5 25 -7 0 -11 21 -11 54 0 49 3 56 33 78 106 82 139 93 145 51z
m-1365 -10 c9 35 35 35 48 0 13 -36 -4 -136 -35 -207 -23 -52 -23 -53 -5 -77
23 -30 39 -101 41 -182 1 -57 2 -54 8 28 4 50 15 113 25 140 17 50 54 115 66
115 4 0 15 -19 25 -42 13 -31 19 -77 22 -168 3 -109 1 -133 -18 -189 -22 -66
-66 -138 -121 -201 l-31 -35 5 85 c5 77 12 105 62 235 4 11 -4 4 -18 -16 -14
-20 -31 -63 -37 -100 -7 -35 -16 -68 -20 -72 -11 -13 -32 85 -41 188 l-7 90 2
-100 c2 -55 11 -133 21 -173 17 -69 18 -79 3 -175 -9 -56 -19 -111 -23 -122
-11 -33 72 63 105 120 16 29 52 73 80 99 28 26 57 64 66 84 l15 37 21 -34 c37
-57 30 -137 -20 -248 -23 -50 -44 -103 -48 -117 -5 -21 -12 -26 -36 -26 -30 0
-31 1 -25 43 3 23 17 80 31 127 13 47 23 86 22 87 -1 2 -16 -16 -33 -40 -73
-101 -219 -224 -346 -292 -62 -33 -69 -35 -50 -14 13 14 35 54 49 90 28 68 84
277 84 313 0 39 21 97 32 90 7 -4 9 -39 6 -98 -6 -102 -40 -206 -103 -309
l-35 -58 42 25 c109 65 143 122 154 259 5 62 2 82 -20 139 -14 37 -35 123 -46
192 -12 68 -25 140 -31 158 -15 55 -12 64 14 40 13 -12 27 -22 31 -22 5 0 6
28 2 63 -22 221 -19 250 28 283 20 14 21 13 26 -13 l6 -28 7 28z m-2394 3 c17
-20 3 -46 -24 -46 -30 0 -39 14 -25 40 12 23 33 26 49 6z m1762 -145 c18 -29
41 -76 51 -105 21 -60 24 -165 5 -190 -12 -16 -16 -17 -48 -3 -48 20 -114 98
-136 160 -22 64 -24 217 -4 264 l13 32 43 -52 c24 -28 58 -76 76 -106z m-242
67 c14 -24 14 -32 -3 -80 -31 -87 -32 -88 -55 -38 -35 76 -23 155 22 148 12
-2 28 -15 36 -30z m646 -106 c64 -97 93 -264 76 -444 -6 -62 -15 -126 -20
-143 -8 -25 -10 -17 -11 45 -2 55 -4 67 -10 45 l-7 -30 -12 30 c-7 17 -16 71
-21 120 l-7 90 -2 -81 -1 -81 -46 43 -47 42 -5 94 c-3 66 0 111 11 153 19 73
55 155 67 155 5 0 21 -17 35 -38z m-778 -18 c62 -32 97 -73 114 -137 12 -47 6
-57 -21 -32 -33 30 -23 7 28 -64 86 -118 382 -715 382 -770 0 -22 -292 307
-307 346 -3 7 -16 13 -30 13 -19 0 -45 20 -95 73 -173 178 -215 250 -206 348
l5 49 -56 1 c-64 0 -146 28 -146 49 0 27 64 53 141 58 64 4 93 0 189 -24 48
-12 -30 37 -83 52 -99 29 -222 5 -276 -55 -22 -24 -39 -27 -55 -7 -16 20 -5
41 39 71 104 72 268 85 377 29z m-1437 -15 c-11 -20 -66 -59 -84 -59 -5 0 9
13 32 29 22 16 43 34 47 40 12 20 16 11 5 -10z m4235 13 c-6 -5 -44 -21 -85
-37 -59 -23 -89 -42 -151 -101 -96 -89 -161 -120 -298 -145 -58 -10 -117 -21
-131 -24 -20 -5 -9 10 50 70 170 174 319 242 535 244 49 1 85 -3 80 -7z
m-4180 -166 c221 -61 235 -66 235 -78 0 -13 -169 -6 -390 16 -153 16 -230 30
-298 58 -26 10 -25 11 38 34 101 37 201 29 415 -30z m1624 -56 c27 -14 156
-216 201 -314 43 -92 75 -195 85 -269 6 -47 7 -48 25 -32 22 20 40 12 40 -16
0 -11 10 -39 22 -62 27 -54 27 -114 0 -161 -14 -23 -22 -54 -22 -82 0 -53 15
-58 23 -8 8 46 33 74 67 74 34 0 50 -17 50 -53 0 -59 -47 -102 -80 -72 -16 15
-18 14 -24 -7 -3 -13 -6 -51 -6 -85 l0 -62 58 -43 c31 -23 112 -85 179 -137
67 -53 142 -109 167 -124 189 -117 455 -485 444 -614 -3 -34 -4 -33 -75 64
-203 276 -346 397 -577 489 -66 27 -246 77 -389 108 -39 9 -32 34 18 60 60 31
189 30 270 -3 99 -41 219 -119 320 -210 39 -35 35 -30 -15 22 -119 124 -293
227 -383 227 -30 0 -46 4 -42 10 3 6 18 10 31 10 l26 0 -21 34 c-12 18 -24 54
-27 80 -6 44 -8 46 -38 45 -28 0 -34 -6 -59 -58 -22 -48 -146 -205 -154 -197
-7 6 39 216 54 250 17 38 17 39 -2 50 -64 34 -332 334 -314 350 10 9 120 -28
203 -68 104 -49 175 -107 204 -166 l20 -41 12 35 c6 19 22 50 34 69 l23 34
-34 58 c-19 32 -40 81 -47 109 -8 29 -15 43 -17 33 -3 -12 -15 6 -33 50 -16
37 -87 184 -159 326 -98 197 -127 264 -123 283 7 26 33 32 65 14z m2555 -17
c-3 -16 -21 -61 -40 -102 -73 -157 -301 -331 -467 -356 -30 -5 -48 -13 -52
-24 -10 -32 -80 -94 -135 -120 -48 -23 -68 -26 -155 -26 -94 1 -175 17 -175
34 0 5 23 39 51 76 l51 69 -52 -47 c-79 -71 -125 -75 -118 -11 3 24 1 30 -7
24 -7 -5 -10 -23 -7 -39 7 -52 -33 -160 -96 -256 -33 -50 -68 -98 -78 -107
-11 -9 -75 -48 -144 -86 -69 -38 -142 -79 -162 -92 -49 -28 -48 -11 0 43 63
69 162 203 268 361 121 182 166 233 262 298 148 100 252 141 667 263 105 31
233 71 285 90 52 18 98 34 103 34 4 1 5 -11 1 -26z m-2279 -63 c51 -79 65 -91
65 -56 0 14 5 26 10 26 22 0 91 -41 123 -74 75 -75 99 -176 76 -318 -14 -82
-14 -83 -20 -38 -5 41 -6 38 -8 -25 -1 -70 -26 -142 -65 -190 -9 -11 -5 3 9
31 19 39 25 68 25 116 0 80 -17 139 -75 259 -50 105 -50 87 0 -39 31 -79 31
-82 9 -61 -42 40 -76 97 -99 171 -13 40 -24 66 -24 56 -2 -38 39 -138 87 -212
58 -87 68 -119 22 -66 l-30 35 31 -53 c18 -29 29 -55 25 -59 -23 -24 -204 236
-243 351 -23 69 -23 163 1 198 10 15 23 25 28 22 5 -3 29 -37 53 -74z m-1544
24 c165 -48 277 -154 461 -436 l37 -57 -42 15 c-23 9 -118 38 -212 65 -188 55
-340 113 -405 154 -87 55 -174 155 -195 223 -6 21 -4 22 52 23 32 0 87 6 123
14 88 18 117 18 181 -1z m2639 -119 c0 -43 -26 -120 -57 -172 -20 -32 -42 -86
-49 -120 -8 -35 -27 -89 -43 -120 -25 -51 -163 -249 -228 -326 l-23 -28 6 33
c4 18 17 59 30 90 l22 58 -29 -16 c-51 -26 -165 -106 -142 -99 38 11 63 -11
63 -54 0 -32 -6 -44 -32 -66 -18 -15 -43 -31 -57 -37 -53 -20 -66 58 -21 122
l21 29 -43 -16 c-59 -22 -179 -22 -246 1 -28 10 -50 22 -46 27 3 5 35 9 72 9
95 0 197 17 251 41 41 18 151 88 151 96 0 1 -42 -19 -92 -47 -102 -54 -186
-73 -297 -68 l-62 3 123 63 c68 35 112 61 98 57 -14 -4 -54 -23 -90 -42 -114
-62 -161 -63 -77 -2 62 47 163 90 232 100 54 8 125 2 200 -17 18 -4 18 -4 3 6
-10 6 -18 16 -18 22 0 17 94 162 157 242 31 39 44 60 29 46 -16 -14 -66 -76
-113 -137 -46 -62 -86 -113 -89 -113 -9 0 38 107 78 177 61 106 142 192 225
236 75 40 93 44 93 22z m-1717 -29 c33 -14 331 -324 411 -429 41 -53 116 -177
116 -191 0 -4 -13 3 -30 15 -16 12 -27 26 -24 31 9 14 -188 203 -326 312 -256
204 -276 227 -228 260 28 20 40 20 81 2z m2954 -277 c-50 -35 -103 -84 -131
-120 -79 -101 -219 -192 -320 -205 -44 -6 -56 -2 -192 66 -80 40 -144 74 -142
76 2 1 68 10 147 18 79 8 146 17 149 20 5 6 -177 -2 -210 -9 -36 -7 -16 7 60
42 168 77 283 109 512 143 80 11 150 23 155 25 6 2 21 4 34 4 17 1 2 -14 -62
-60z m-3882 -40 c9 -17 15 -32 13 -33 -2 -2 -33 0 -70 3 -98 9 -105 24 -21 47
64 17 60 18 78 -17z m127 -16 c51 -20 140 -118 177 -195 30 -62 111 -288 111
-310 0 -7 -18 5 -40 27 -21 21 -36 43 -33 48 3 6 2 7 -4 4 -10 -7 -59 42 -138
136 -46 55 -50 58 -63 40 -13 -17 -14 -17 -29 2 -35 45 -83 197 -83 261 0 18
37 13 102 -13z m196 -4 c89 4 211 -51 242 -109 9 -17 -11 -9 -100 35 -61 32
-113 55 -115 53 -2 -2 20 -16 50 -32 52 -27 163 -131 152 -143 -12 -11 -111
31 -184 80 -43 28 -109 68 -148 90 l-70 38 60 -7 c33 -5 84 -7 113 -5z m-728
-109 c152 -81 223 -128 295 -192 48 -43 228 -188 270 -217 11 -8 -21 30 -71
85 -92 99 -163 202 -166 239 0 11 -4 -2 -7 -30 l-6 -50 -38 52 c-57 77 -86
176 -63 209 13 17 16 16 68 -8 30 -15 67 -41 82 -59 33 -39 83 -138 121 -239
38 -102 61 -136 141 -209 92 -84 211 -153 429 -247 55 -24 96 -44 90 -44 -18
0 -339 107 -396 133 -31 14 -102 57 -158 96 -124 87 -229 144 -300 165 -78 23
-86 19 -15 -8 71 -26 192 -91 288 -155 l69 -46 -37 -3 c-54 -5 -139 24 -188
63 -116 93 -207 124 -390 133 -60 2 -108 8 -108 12 0 10 56 53 97 74 49 25
162 21 248 -8 39 -14 72 -23 73 -21 8 8 -60 35 -148 60 -152 43 -173 57 -319
214 l-103 111 54 -19 c29 -10 114 -51 188 -91z m4356 -38 c105 -133 168 -292
185 -469 5 -59 14 -125 19 -147 11 -47 13 -121 3 -154 -10 -39 -140 287 -169
423 -19 86 -23 97 -19 50 3 -33 8 -78 11 -100 l5 -40 -25 30 c-36 41 -91 159
-106 224 -13 54 -10 227 4 250 12 18 42 -4 92 -67z m-928 -3 c35 -12 112 -54
170 -93 59 -39 126 -80 150 -90 58 -26 54 -40 -10 -32 -36 5 -91 27 -173 71
-116 62 -186 86 -287 100 -46 6 -78 25 -78 46 0 34 126 33 228 -2z m-33 -103
c19 -8 35 -17 35 -20 0 -10 -201 -99 -309 -137 -111 -38 -182 -72 -230 -108
-23 -18 -23 -18 35 -6 33 7 90 15 127 19 57 7 67 5 67 -8 0 -24 -49 -44 -151
-60 -52 -8 -120 -24 -151 -35 -89 -31 -251 -118 -284 -152 l-29 -32 46 35 c62
46 177 93 319 131 155 41 319 44 425 9 68 -23 180 -78 219 -107 26 -20 9 -39
-57 -62 -73 -25 -204 -22 -345 6 -62 12 -118 20 -125 18 -7 -3 -2 -6 11 -6 58
-2 152 -65 152 -103 0 -23 -34 -23 -162 -3 -51 8 -141 17 -200 21 -60 3 -108
10 -108 15 0 27 127 71 240 82 19 2 -3 4 -50 5 -151 3 -320 -51 -373 -119
l-25 -33 -36 28 c-20 15 -36 30 -36 34 0 21 68 120 121 176 90 97 216 173 454
273 63 27 70 32 70 58 0 56 91 93 233 94 51 1 96 -5 117 -13z m-1259 -30 c28
-21 7 -40 -29 -27 -27 10 -33 21 -20 34 10 11 28 8 49 -7z m1452 -46 c146 -73
192 -136 275 -377 47 -135 74 -196 109 -245 23 -33 15 -35 -31 -7 -37 23 -81
41 -81 34 0 -2 30 -21 67 -42 67 -37 203 -146 203 -162 0 -5 -27 -1 -59 10
-111 34 -221 42 -486 35 -160 -4 -275 -11 -320 -21 -92 -19 -91 -20 -111 14
-13 21 -27 31 -56 35 -21 3 -38 8 -38 11 0 7 49 64 83 96 32 29 90 51 115 42
10 -3 27 -15 39 -26 21 -19 24 -19 41 -4 9 9 44 28 76 43 82 37 200 44 314 16
l83 -19 -20 21 c-52 56 -174 278 -205 373 -22 65 -31 72 -31 25 0 -34 -4 -39
-46 -60 -117 -58 -252 -51 -318 15 l-35 35 -88 -4 c-49 -2 -85 -1 -81 3 16 13
120 47 218 70 120 28 243 30 298 6 33 -14 53 -8 27 8 -14 9 -50 81 -50 100 0
23 21 18 108 -25z m-1908 -109 c34 -69 77 -184 89 -242 9 -44 9 -73 0 -125
l-12 -69 -13 65 c-16 78 -36 133 -79 220 -58 116 -68 190 -25 190 13 0 27 -14
40 -39z m668 7 c32 -32 -3 -75 -89 -107 -59 -22 -92 -51 -104 -90 -4 -14 -11
-19 -16 -14 -26 26 56 182 111 210 32 16 82 17 98 1z m-1595 -64 c14 -14 31
-42 38 -62 7 -21 19 -48 28 -62 l15 -25 -27 25 c-15 13 -49 36 -75 50 -55 30
-86 75 -62 90 26 17 56 11 83 -16z m1706 -23 c7 -5 16 -29 18 -55 5 -43 3 -48
-35 -86 -41 -42 -85 -53 -110 -28 -9 9 -15 9 -24 0 -7 -7 -23 -12 -38 -11 -22
0 -20 3 15 18 22 10 46 25 53 33 10 13 8 15 -15 10 l-28 -5 30 27 30 27 -50
-30 c-27 -16 -51 -28 -54 -26 -12 13 75 109 114 125 26 11 77 12 94 1z m-2489
-18 c0 -57 -112 -188 -187 -220 -35 -14 -113 -18 -113 -5 0 4 42 49 93 99 116
116 207 171 207 126z m325 -45 c89 -30 131 -49 316 -145 164 -85 309 -126 522
-149 77 -8 143 -17 146 -19 7 -8 -31 -45 -79 -78 -25 -17 -46 -31 -48 -33 -2
-1 10 -20 26 -42 l29 -41 41 64 c51 77 121 126 190 132 l47 4 -42 -20 c-59
-27 -54 -33 7 -10 87 33 249 21 274 -20 5 -8 -23 -11 -97 -10 -120 2 -127 -1
-212 -80 -34 -31 -89 -70 -123 -86 -34 -17 -62 -33 -62 -37 0 -4 21 -37 47
-75 26 -37 77 -111 113 -164 l66 -97 16 29 c21 36 71 67 120 75 32 6 36 9 28
25 -6 10 -10 42 -10 72 0 29 -7 76 -15 103 -8 27 -11 52 -6 57 15 15 62 -5 89
-39 15 -19 29 -34 32 -34 3 0 5 45 6 99 1 84 5 107 25 147 13 26 36 57 50 67
23 17 31 18 63 7 75 -24 97 -101 45 -156 -24 -26 -39 -23 -39 6 0 45 -23 24
-65 -60 l-46 -91 32 17 c47 24 128 15 172 -19 37 -28 71 -89 82 -147 l6 -35
-33 37 c-55 61 -72 66 -185 65 l-103 -1 0 -33 c0 -19 -7 -50 -15 -71 -15 -34
-15 -38 2 -49 37 -27 53 -43 53 -53 0 -6 -4 -8 -10 -5 -13 8 -260 -6 -260 -14
0 -4 27 -13 60 -19 53 -11 69 -21 129 -77 49 -47 76 -82 95 -126 32 -70 30
-85 -5 -34 -18 26 -52 49 -133 90 l-108 56 32 -43 c18 -24 70 -100 117 -169
76 -114 87 -136 104 -212 26 -120 53 -187 95 -235 34 -40 34 -42 10 -32 -14 5
-37 17 -50 25 -18 12 -59 18 -150 22 -152 6 -289 -13 -454 -63 -85 -26 -132
-34 -188 -34 -41 0 -74 3 -74 8 0 4 12 25 26 47 97 146 219 203 409 192 141
-8 257 -48 354 -121 37 -28 54 -27 29 1 -9 10 -43 74 -76 143 -73 149 -282
501 -372 626 -35 49 -107 142 -158 206 -106 131 -123 142 -242 153 -66 6 -119
25 -73 25 42 0 173 22 173 29 0 4 -6 15 -13 25 -12 16 -22 16 -145 5 -155 -14
-208 -5 -218 36 -7 29 -18 31 -70 9 -23 -10 -55 -14 -83 -12 -43 4 -51 1 -117
-51 -40 -31 -95 -70 -122 -87 -49 -30 -50 -31 -42 -8 19 49 59 120 76 136 11
9 45 26 76 38 31 11 68 30 83 42 23 18 25 22 11 30 -20 11 -21 57 -1 64 22 9
68 -24 61 -43 -4 -10 -2 -13 8 -10 40 15 89 18 116 7 31 -13 37 -24 20 -35 -5
-3 -15 -16 -22 -28 -9 -17 -2 -14 27 12 45 39 92 61 137 62 22 1 26 3 13 6
-11 3 -78 25 -150 49 -71 25 -159 49 -195 54 -36 6 -74 12 -85 15 -17 3 -20
-1 -20 -32 0 -42 -20 -59 -58 -49 -34 8 -46 49 -23 75 15 16 13 19 -39 40 -61
25 -155 96 -155 116 0 33 53 28 185 -17z m-165 -132 c0 -8 -21 -30 -47 -50
-27 -20 -83 -75 -126 -121 -78 -85 -251 -220 -269 -209 -10 7 -3 59 19 128 30
95 181 210 328 251 66 18 95 18 95 1z m161 -104 c118 -86 129 -96 116 -104
-18 -12 -66 -9 -122 6 -69 18 -93 31 -143 80 l-43 41 38 6 c60 10 115 0 154
-29z m-171 -22 c41 -41 15 -153 -39 -167 -27 -7 -94 24 -88 41 2 6 18 15 35
20 30 8 32 12 32 52 0 75 20 94 60 54z m2668 -56 c143 -48 244 -129 319 -255
34 -57 63 -152 63 -204 0 -17 6 -39 13 -48 12 -18 14 2 20 210 l2 52 26 -25
c14 -13 32 -24 40 -24 32 0 89 -97 89 -152 l0 -32 17 24 c49 75 134 130 201
130 36 0 39 -8 17 -54 -24 -51 -87 -105 -166 -145 -40 -20 -74 -41 -76 -47 -2
-6 13 -14 33 -17 21 -4 51 -19 68 -35 39 -36 134 -94 139 -84 3 4 8 22 12 40
6 29 4 32 -17 32 -57 0 -101 64 -73 107 32 48 94 53 118 8 12 -24 13 -23 42
33 39 75 134 169 213 211 85 44 156 51 234 21 53 -20 93 -47 51 -34 -15 4 -15
3 2 -8 77 -50 146 -162 165 -268 12 -68 7 -116 -17 -165 -21 -40 -20 -40 -37
-26 -8 7 -12 22 -9 34 3 16 2 18 -5 8 -7 -10 -15 0 -30 40 -38 103 -62 190
-74 275 -14 101 -21 107 -119 107 -88 0 -149 -33 -241 -132 -72 -77 -153 -221
-165 -293 -4 -31 -1 -38 26 -57 33 -24 40 -41 17 -41 -8 0 -61 24 -118 54 -57
30 -137 64 -178 76 -41 12 -124 50 -184 84 -122 69 -138 86 -204 229 -23 49
-68 128 -101 177 -33 48 -57 91 -53 95 4 5 1 5 -5 1 -7 -4 -13 -3 -13 3 0 5
-19 24 -42 43 l-43 33 44 -50 c65 -75 97 -138 141 -276 22 -69 47 -134 55
-145 8 -10 15 -35 16 -54 l1 -35 11 28 c6 15 16 27 22 27 18 0 139 -102 195
-165 29 -33 79 -85 110 -115 52 -49 61 -64 85 -140 49 -154 45 -290 -11 -419
-30 -66 -30 -75 -1 -68 34 9 49 -6 54 -57 8 -63 -33 -147 -91 -188 -70 -48
-154 -94 -134 -72 26 30 39 109 36 224 l-3 105 -34 -70 c-65 -133 -196 -238
-381 -308 -77 -29 -197 -88 -225 -112 -26 -22 -17 -19 143 49 164 70 213 81
317 72 44 -4 87 -7 96 -7 9 0 57 18 108 41 89 40 259 90 307 90 13 0 24 -6 24
-12 0 -24 -157 -163 -238 -212 -119 -71 -245 -120 -311 -121 l-53 0 68 -32
c163 -76 361 -129 526 -140 79 -5 96 -9 87 -19 -26 -32 -227 -74 -355 -74 -96
0 -237 52 -344 127 -19 13 -4 -4 35 -39 38 -35 96 -89 130 -121 51 -49 56 -56
30 -47 -67 25 -192 98 -253 150 -64 53 -132 131 -132 151 0 14 74 0 169 -31
67 -21 79 -23 60 -9 -13 10 -53 25 -89 35 -142 36 -168 44 -181 60 -21 25 4
31 84 20 39 -6 101 -11 137 -11 59 0 77 5 173 52 109 53 225 119 262 147 11 9
-25 -7 -80 -34 -159 -81 -269 -102 -533 -105 l-214 -3 -55 -38 c-30 -22 -63
-45 -74 -53 -18 -13 -19 -12 -13 20 10 53 51 138 90 185 l35 43 -21 40 c-27
54 -48 187 -32 203 9 9 18 8 37 -2 50 -27 79 -101 65 -165 -10 -46 2 -37 29
21 12 25 25 44 28 40 3 -3 0 -14 -8 -23 -12 -16 -12 -17 1 -6 8 6 23 26 33 45
l19 33 -21 -25 c-32 -39 -25 -15 19 61 40 68 91 188 89 212 0 6 -10 -15 -23
-48 -23 -65 -82 -173 -116 -215 -18 -23 -20 -23 -19 -5 0 11 17 106 38 210 45
226 87 328 167 410 l49 50 7 -135 c10 -169 -2 -278 -39 -377 -16 -41 125 132
202 249 111 167 127 177 101 64 -33 -139 -129 -268 -286 -384 -100 -74 -192
-160 -275 -257 -103 -120 -105 -124 -40 -67 32 29 98 72 146 97 74 38 89 50
98 78 14 40 68 94 139 137 32 19 52 39 52 50 0 23 56 83 72 78 7 -3 14 -14 16
-26 4 -27 5 -27 67 4 28 13 40 22 28 20 -17 -3 -23 1 -23 14 0 19 39 81 78
122 24 26 25 31 19 105 -11 138 -72 292 -174 436 l-55 78 -33 -38 c-19 -21
-34 -43 -35 -50 0 -7 24 -31 52 -55 127 -104 199 -201 170 -230 -12 -12 -35
-1 -124 64 -88 64 -142 127 -158 183 -11 38 -10 56 5 119 30 125 21 161 -89
387 -52 108 -107 210 -121 227 -16 19 -43 36 -67 43 -37 10 -57 8 -113 -8 -34
-9 -9 8 32 22 58 21 127 18 211 -11z m-2513 -64 c3 -5 -10 -44 -30 -86 -19
-42 -35 -83 -35 -90 0 -8 -4 -14 -9 -14 -15 0 -34 104 -27 144 5 25 14 40 29
46 30 12 65 12 72 0z m1340 -9 c18 -7 18 -9 -10 -24 -17 -8 -48 -35 -70 -58
l-40 -43 53 46 c50 45 110 74 133 66 17 -6 -90 -117 -148 -155 -45 -29 -54
-40 -67 -84 -9 -28 -19 -74 -23 -103 l-7 -51 -27 85 c-16 47 -28 105 -28 130
-1 54 26 115 65 152 40 37 123 57 169 39z m598 -26 c32 -8 76 -24 98 -35 73
-38 49 -45 -157 -46 -141 0 -203 -5 -244 -17 -30 -8 -57 -14 -59 -12 -4 5 41
47 84 80 59 45 173 57 278 30z m-2182 -93 c30 -18 77 -54 104 -78 l50 -45 -33
5 c-18 3 -94 12 -170 21 -75 8 -155 17 -177 20 l-40 5 37 -20 c61 -33 146 -50
248 -50 52 0 100 -4 107 -8 17 -11 -163 -71 -236 -78 -35 -4 -72 -2 -95 6 -40
13 -39 30 2 30 26 1 26 1 6 13 -12 7 -56 39 -97 71 l-76 60 42 24 c84 49 128
62 203 59 59 -2 79 -7 125 -35z m789 0 c147 -52 299 -156 400 -274 69 -81 355
-506 403 -599 61 -118 12 -83 -141 101 -133 161 -363 387 -447 441 -80 52
-225 133 -225 126 0 -3 46 -33 103 -68 56 -34 127 -81 157 -103 73 -53 250
-226 275 -268 l19 -33 -24 18 c-41 29 -292 192 -451 292 -20 13 -69 52 -110
87 -41 35 -96 80 -124 100 -66 47 -178 165 -173 181 7 20 56 26 173 22 76 -2
127 -9 165 -23z m1223 -54 c40 -40 43 -42 59 -26 69 70 290 27 421 -82 52 -44
46 -55 -10 -19 -84 52 -163 72 -296 71 -65 0 -120 -2 -123 -4 -2 -3 6 -27 18
-54 15 -34 23 -76 26 -137 4 -82 3 -89 -14 -85 -14 2 -24 26 -44 103 -14 55
-37 121 -52 146 -28 48 -90 109 -111 109 -7 0 -6 4 3 10 35 23 79 11 123 -32z
m-1561 9 c4 -6 8 -15 8 -18 0 -16 -83 -79 -117 -88 -51 -14 -130 -14 -139 1
-18 29 159 134 211 123 16 -3 33 -11 37 -18z m1638 -2 c-33 -19 -50 -19 -50 0
0 11 11 15 38 15 l37 -1 -25 -14z m1937 -71 c31 -9 18 -32 -23 -40 -41 -8
-107 3 -99 16 12 20 85 34 122 24z m-1627 -44 c76 -30 149 -78 156 -104 16
-64 -58 -153 -136 -163 l-42 -6 21 41 c12 23 34 56 50 75 22 25 27 37 20 50
-26 45 -145 77 -286 77 -90 0 -96 6 -39 42 27 17 43 19 116 14 51 -3 107 -14
140 -26z m-1755 -54 c28 -14 60 -35 70 -46 17 -19 17 -19 -106 -17 -74 1 -158
-4 -208 -12 -73 -13 -86 -13 -110 0 -14 8 -27 24 -29 35 -7 49 81 76 227 70
85 -4 113 -10 156 -30z m2014 -41 c95 -102 192 -247 215 -322 10 -33 -20 -30
-37 3 l-14 27 -1 -31 c-1 -38 -29 -95 -45 -89 -7 2 -20 26 -30 53 -22 62 -69
165 -74 160 -2 -2 10 -34 26 -72 40 -95 55 -180 48 -269 -7 -78 -40 -165 -62
-165 -32 0 -37 55 -30 292 7 223 6 235 -14 290 -31 80 -60 188 -51 188 4 0 35
-29 69 -65z m-731 29 c47 -37 76 -104 68 -161 -5 -39 -4 -43 12 -34 30 16 172
33 215 26 95 -16 177 -80 218 -169 24 -54 24 -74 -3 -105 l-23 -25 32 22 c40
28 42 28 55 -9 10 -30 11 -29 50 73 22 56 46 126 53 153 10 38 14 46 20 32 10
-23 -1 -136 -20 -219 -8 -35 -19 -137 -25 -228 -17 -254 -33 -314 -112 -419
l-33 -43 3 -137 2 -136 -22 37 c-13 21 -42 73 -66 115 -23 43 -52 89 -63 103
l-20 25 15 -32 c9 -18 16 -37 16 -43 0 -17 -62 -11 -110 11 -83 37 -102 74
-55 105 21 14 34 15 76 7 l50 -10 -3 31 c-3 27 -12 35 -80 71 -51 26 -89 54
-109 80 l-31 40 7 -50 c4 -27 18 -84 31 -125 13 -41 22 -76 19 -78 -9 -9 -48
23 -118 98 -60 64 -87 103 -131 192 -57 115 -97 261 -77 281 36 36 159 -76
220 -203 37 -75 37 -75 73 -72 45 4 114 -25 150 -64 14 -16 47 -77 73 -137 49
-111 65 -135 65 -95 0 13 16 57 36 98 58 121 75 178 89 310 7 69 12 126 11
128 -2 1 -9 0 -17 -3 -11 -4 -14 -31 -14 -118 0 -128 -12 -162 -92 -280 -39
-56 -49 -65 -54 -50 -16 39 -7 73 41 168 62 122 66 150 5 37 -24 -45 -50 -91
-58 -103 -14 -20 -15 -20 -21 3 -11 43 -6 147 10 195 9 26 36 80 60 119 24 40
44 76 44 81 0 29 -135 128 -236 173 -36 17 -79 39 -94 50 -33 24 -40 25 -40 6
0 -8 -15 -27 -33 -43 l-33 -28 49 -73 c41 -62 104 -208 94 -219 -2 -1 -27 28
-56 66 -60 79 -80 126 -111 261 -12 52 -31 120 -42 150 -31 86 -41 135 -34
164 8 33 30 33 74 0z m452 -16 c90 -46 48 -98 -78 -98 -45 0 -67 5 -93 23 -42
28 -47 49 -18 76 33 30 128 29 189 -1z m-565 -123 c47 -100 81 -215 100 -341
8 -60 18 -118 21 -129 4 -11 -12 4 -34 33 -22 30 -48 59 -56 65 -12 9 -20 49
-31 155 -19 178 -28 221 -65 297 l-30 60 31 -35 c17 -19 45 -66 64 -105z
m2186 79 c76 -41 151 -137 178 -229 69 -232 68 -462 -3 -564 -16 -22 -32 -39
-36 -36 -4 2 -10 48 -13 102 -3 63 -14 126 -30 178 -14 44 -29 96 -32 116 -6
31 7 137 21 173 3 7 -10 17 -28 24 -18 7 -73 46 -122 87 -60 50 -105 80 -140
91 -67 22 -72 28 -45 53 53 49 164 51 250 5z m-3294 -63 c116 -24 191 -60 333
-161 104 -74 188 -144 150 -125 -8 4 1 -6 20 -21 19 -16 60 -53 90 -82 l55
-55 -50 43 c-67 56 -167 115 -240 140 -33 11 -118 27 -190 36 -186 21 -285 54
-362 118 l-31 26 -12 -30 c-7 -17 -18 -30 -26 -30 -18 0 -44 39 -44 66 0 30
52 72 98 79 20 4 42 8 47 10 24 8 76 3 162 -14z m3143 -43 c0 -24 59 -139 119
-231 110 -170 142 -277 121 -411 -6 -39 -12 -71 -14 -73 -1 -2 -10 32 -19 75
-19 87 -72 204 -109 242 -14 14 -43 42 -66 63 -48 45 -69 86 -83 162 -15 80 9
185 42 185 5 0 9 -6 9 -12z m552 -139 c-1 -30 -9 -106 -18 -169 -17 -125 -42
-193 -93 -250 -40 -46 -52 -30 -45 60 15 201 45 310 105 384 41 49 55 42 51
-25z m-893 -55 c198 -97 279 -150 361 -234 196 -201 198 -462 8 -744 -22 -32
-53 -82 -68 -112 -22 -41 -30 -49 -34 -36 -4 10 -20 28 -36 41 -17 12 -43 48
-58 79 -16 31 -36 69 -46 85 -18 26 -18 27 1 27 25 0 106 -52 127 -81 9 -13
19 -38 22 -56 3 -18 10 -33 14 -33 14 0 40 128 40 199 0 88 -52 367 -86 463
-45 126 -136 272 -210 338 -32 28 -26 19 40 -63 75 -93 113 -184 156 -370 25
-108 27 -244 4 -310 -28 -82 -44 -57 -44 68 0 164 -46 343 -138 538 -58 122
-116 198 -183 240 -27 16 -49 32 -49 33 0 12 40 -4 179 -72z m-60 -40 c50 -58
117 -194 170 -347 52 -151 73 -255 69 -343 l-3 -69 -54 84 c-68 107 -111 201
-155 342 -49 159 -106 365 -106 384 0 24 30 4 79 -51z m-1272 34 c47 -52 55
-104 27 -164 -15 -30 -15 -47 -5 -143 7 -59 16 -124 21 -145 l8 -38 -23 22
c-27 26 -109 176 -102 188 3 4 -1 41 -9 82 -16 84 -11 143 17 189 22 37 38 39
66 9z m-1061 -78 c44 -22 129 -76 189 -121 123 -91 157 -121 187 -162 l20 -28
-29 7 c-15 4 -86 38 -158 75 -71 37 -165 82 -208 99 -83 33 -231 69 -284 70
-35 0 -44 14 -17 24 31 12 151 6 205 -10 73 -22 130 -52 284 -149 158 -99 165
-103 140 -77 -45 45 -284 194 -360 224 -65 25 -95 31 -162 32 -90 1 -95 12
-18 40 72 26 124 20 211 -24z m3394 -210 c0 -34 -26 -52 -41 -29 -12 19 -11
25 7 43 23 24 34 19 34 -14z m-86 -65 c43 -86 28 -186 -45 -300 l-31 -49 -24
89 c-29 111 -30 150 -4 198 11 20 18 37 15 37 -2 0 -21 -15 -41 -32 -26 -23
-34 -27 -26 -13 16 32 111 117 125 113 7 -2 21 -22 31 -43z m-175 -152 c-2
-32 1 -75 5 -96 16 -74 -27 -154 -147 -275 -57 -58 -169 -142 -211 -158 -16
-6 -16 -4 -1 32 46 112 328 554 353 554 2 0 3 -26 1 -57z m-3829 -48 c0 -26
-9 -43 -35 -70 -85 -84 -91 -4 -7 87 30 33 42 28 42 -17z m3156 -449 c-20 -49
-88 -145 -127 -183 -42 -39 -102 -70 -154 -79 l-40 -6 45 38 c24 22 93 90 154
152 115 118 148 139 122 78z m96 -164 c60 -40 98 -121 98 -211 l-1 -46 -22 65
c-23 68 -85 163 -118 181 -10 5 -19 14 -19 19 0 16 33 11 62 -8z m-930 -69
c111 -151 182 -217 309 -287 81 -45 258 -119 324 -135 119 -31 145 -42 160
-71 9 -17 11 -31 5 -35 -12 -7 -127 11 -176 29 -38 13 -258 113 -400 181 -81
39 -151 97 -195 162 -29 42 -109 194 -109 207 0 3 9 6 20 6 12 0 35 -21 62
-57z m14 -251 c37 -86 51 -178 31 -199 -5 -4 -25 10 -44 32 -28 33 -36 37 -44
25 -22 -31 -58 -119 -65 -156 -13 -77 -44 -142 -83 -177 -42 -38 -129 -92
-136 -85 -3 3 20 36 50 73 42 54 62 90 86 162 49 147 116 307 122 292 3 -8 6
7 6 32 1 26 4 61 7 78 9 45 24 28 70 -77z m-2937 61 c117 -32 232 -102 339
-207 39 -39 72 -66 72 -61 0 13 93 -135 114 -184 11 -22 23 -38 27 -35 5 3 9
-3 9 -14 0 -10 11 -52 25 -92 14 -40 25 -76 25 -79 0 -3 -19 28 -41 69 -57
104 -94 153 -191 246 -138 134 -481 378 -501 358 -3 -4 -15 0 -26 8 -19 13
-15 14 37 11 31 -3 82 -11 111 -20z m3610 -109 l31 -26 0 26 c0 71 119 -11
178 -122 42 -78 62 -160 62 -249 0 -64 -2 -73 -18 -73 -34 0 -51 25 -95 145
-24 66 -60 146 -79 177 l-34 57 -12 -31 c-10 -29 -13 -30 -49 -23 -21 4 -67
16 -103 28 -57 19 -65 25 -68 49 -5 45 28 68 97 68 49 0 65 -4 90 -26z m-294
-185 c154 -110 243 -192 289 -266 14 -24 26 -44 26 -45 0 -2 -36 32 -80 74
-43 42 -130 115 -192 162 -97 73 -251 214 -208 191 8 -5 83 -57 165 -116z
m654 75 c27 -34 27 -78 1 -104 -62 -62 -143 46 -87 118 17 22 64 14 86 -14z
m326 -71 c-9 -43 -27 -109 -41 -146 -22 -58 -32 -70 -65 -87 -21 -11 -43 -20
-48 -20 -14 0 -34 66 -26 89 3 11 37 54 75 96 38 43 79 97 92 121 13 24 24 40
26 35 2 -5 -4 -45 -13 -88z m169 -39 c3 -9 6 -24 6 -35 0 -12 5 -16 15 -13 28
11 15 -12 -28 -47 -47 -40 -98 -69 -121 -69 -20 0 -46 28 -46 50 0 30 50 81
105 106 60 28 61 28 69 8z m-4635 -127 c13 -26 22 -50 19 -52 -6 -6 -121 54
-130 68 -5 7 0 19 12 29 33 27 71 10 99 -45z"/>
<path d="M1837 3813 c18 -2 50 -2 70 0 21 2 7 4 -32 4 -38 0 -55 -2 -38 -4z"/>
<path d="M1531 3301 c85 -111 159 -176 289 -255 60 -36 111 -66 114 -66 8 0
-160 145 -264 227 -47 38 -112 93 -144 123 l-60 55 65 -84z"/>
<path d="M2692 4410 c0 -14 2 -19 5 -12 2 6 2 18 0 25 -3 6 -5 1 -5 -13z"/>
<path d="M2703 4325 c0 -22 2 -30 4 -17 2 12 2 30 0 40 -3 9 -5 -1 -4 -23z"/>
<path d="M1887 4372 c-37 -3 -38 -4 -32 -35 4 -18 24 -69 46 -114 30 -63 58
-101 120 -165 73 -75 78 -79 54 -38 -54 92 -83 157 -110 240 -39 121 -35 115
-78 112z"/>
<path d="M4315 4409 c-27 -11 -54 -25 -60 -30 -5 -5 20 2 55 17 36 14 67 28
69 30 9 9 -17 2 -64 -17z"/>
<path d="M2309 3397 c8 -10 37 -37 65 -60 28 -23 45 -34 37 -24 -8 10 -37 37
-65 60 -28 23 -45 34 -37 24z"/>
<path d="M4310 4051 c-235 -78 -305 -111 -410 -189 -96 -72 -105 -80 -50 -49
25 14 92 42 150 62 133 47 449 205 410 204 -8 0 -53 -13 -100 -28z"/>
<path d="M3953 4011 c-73 -29 -158 -74 -167 -90 -3 -5 36 13 87 38 50 26 110
54 132 63 22 9 36 16 30 17 -5 0 -42 -12 -82 -28z"/>
<path d="M3970 3820 c-8 -5 -10 -10 -5 -10 6 0 17 5 25 10 8 5 11 10 5 10 -5
0 -17 -5 -25 -10z"/>
<path d="M3862 3775 c-40 -19 -72 -37 -72 -40 0 -3 26 7 58 23 31 15 68 33 82
39 14 7 20 12 15 12 -6 1 -43 -15 -83 -34z"/>
<path d="M3500 3694 c-52 -53 -86 -92 -75 -86 18 10 74 65 150 150 57 64 18
30 -75 -64z"/>
<path d="M3295 3401 c-44 -38 -93 -84 -110 -102 -26 -29 17 8 160 135 70 62
33 38 -50 -33z"/>
<path d="M2712 3890 c0 -19 2 -27 5 -17 2 9 2 25 0 35 -3 9 -5 1 -5 -18z"/>
<path d="M1052 4059 c31 -17 113 -76 183 -131 69 -55 128 -98 130 -96 2 2 -49
46 -115 98 -109 87 -221 160 -245 160 -5 0 15 -14 47 -31z"/>
<path d="M3302 3698 c-12 -28 -20 -53 -18 -55 2 -2 13 19 25 48 12 28 21 53
19 55 -3 2 -14 -20 -26 -48z"/>
<path d="M1072 3658 c8 -13 32 -51 53 -85 37 -61 58 -86 34 -40 -23 43 -91
147 -96 147 -3 0 1 -10 9 -22z"/>
<path d="M1190 3463 c11 -21 30 -49 42 -63 l20 -25 -17 29 c-10 16 -26 44 -37
63 -27 46 -34 42 -8 -4z"/>
<path d="M688 3383 c6 -2 18 -2 25 0 6 3 1 5 -13 5 -14 0 -19 -2 -12 -5z"/>
<path d="M4871 3424 c0 -11 3 -14 6 -6 3 7 2 16 -1 19 -3 4 -6 -2 -5 -13z"/>
<path d="M3368 3123 c12 -2 30 -2 40 0 9 3 -1 5 -23 4 -22 0 -30 -2 -17 -4z"/>
<path d="M3503 3123 c15 -2 39 -2 55 0 15 2 2 4 -28 4 -30 0 -43 -2 -27 -4z"/>
<path d="M3298 3113 c6 -2 18 -2 25 0 6 3 1 5 -13 5 -14 0 -19 -2 -12 -5z"/>
<path d="M3603 3113 c9 -2 25 -2 35 0 9 3 1 5 -18 5 -19 0 -27 -2 -17 -5z"/>
<path d="M3673 3103 c9 -2 23 -2 30 0 6 3 -1 5 -18 5 -16 0 -22 -2 -12 -5z"/>
<path d="M3738 3093 c7 -3 16 -2 19 1 4 3 -2 6 -13 5 -11 0 -14 -3 -6 -6z"/>
<path d="M3823 3333 c9 -2 25 -2 35 0 9 3 1 5 -18 5 -19 0 -27 -2 -17 -5z"/>
<path d="M3768 3323 c7 -3 16 -2 19 1 4 3 -2 6 -13 5 -11 0 -14 -3 -6 -6z"/>
<path d="M4248 3113 c48 -94 102 -189 120 -210 l33 -38 -35 50 c-18 28 -64
111 -100 185 -36 74 -75 146 -85 160 -11 14 19 -52 67 -147z"/>
<path d="M4028 2823 c6 -2 18 -2 25 0 6 3 1 5 -13 5 -14 0 -19 -2 -12 -5z"/>
<path d="M4123 2823 c15 -2 39 -2 55 0 15 2 2 4 -28 4 -30 0 -43 -2 -27 -4z"/>
<path d="M4228 2813 c7 -3 16 -2 19 1 4 3 -2 6 -13 5 -11 0 -14 -3 -6 -6z"/>
<path d="M1408 2873 c23 -2 59 -2 80 0 20 2 1 4 -43 4 -44 0 -61 -2 -37 -4z"/>
<path d="M1285 2860 c-13 -6 -5 -7 25 -3 25 3 47 7 49 9 9 8 -55 2 -74 -6z"/>
<path d="M1880 1590 c-77 -8 -214 -39 -206 -47 2 -2 32 4 67 13 40 11 123 20
224 24 88 4 135 7 104 8 -31 1 -69 4 -85 6 -16 2 -63 0 -104 -4z"/>
<path d="M245 2758 c-26 -35 -39 -55 -28 -45 20 18 87 107 80 107 -2 0 -25
-28 -52 -62z"/>
<path d="M3420 2735 c13 -14 26 -25 28 -25 3 0 -5 11 -18 25 -13 14 -26 25
-28 25 -3 0 5 -11 18 -25z"/>
<path d="M3480 2665 c13 -14 26 -25 28 -25 3 0 -5 11 -18 25 -13 14 -26 25
-28 25 -3 0 5 -11 18 -25z"/>
<path d="M3510 2626 c0 -2 8 -10 18 -17 15 -13 16 -12 3 4 -13 16 -21 21 -21
13z"/>
<path d="M3774 2428 c-6 -29 -14 -60 -18 -69 -5 -11 1 -19 19 -27 14 -7 30
-12 34 -12 20 0 18 46 -2 102 l-23 59 -10 -53z"/>
<path d="M4741 2354 c0 -11 3 -14 6 -6 3 7 2 16 -1 19 -3 4 -6 -2 -5 -13z"/>
<path d="M4762 2280 c0 -14 2 -19 5 -12 2 6 2 18 0 25 -3 6 -5 1 -5 -13z"/>
<path d="M4772 2225 c0 -16 2 -22 5 -12 2 9 2 23 0 30 -3 6 -5 -1 -5 -18z"/>
<path d="M3816 2005 c4 -11 17 -54 30 -95 13 -41 23 -68 23 -59 1 23 -36 140
-50 159 -9 12 -9 11 -3 -5z"/>
<path d="M3873 1795 c0 -22 2 -30 4 -17 2 12 2 30 0 40 -3 9 -5 -1 -4 -23z"/>
<path d="M3361 1674 c0 -11 3 -14 6 -6 3 7 2 16 -1 19 -3 4 -6 -2 -5 -13z"/>
<path d="M3871 1654 c0 -11 3 -14 6 -6 3 7 2 16 -1 19 -3 4 -6 -2 -5 -13z"/>
<path d="M3351 1624 c0 -11 3 -14 6 -6 3 7 2 16 -1 19 -3 4 -6 -2 -5 -13z"/>
<path d="M3341 1584 c0 -11 3 -14 6 -6 3 7 2 16 -1 19 -3 4 -6 -2 -5 -13z"/>
<path d="M3848 1271 c-15 -31 -35 -67 -44 -81 -12 -18 -9 -17 10 5 28 32 69
112 64 125 -2 4 -15 -18 -30 -49z"/>
<path d="M3933 693 c31 -2 83 -2 115 0 31 2 5 3 -58 3 -63 0 -89 -1 -57 -3z"/>
<path d="M388 2673 c7 -3 16 -2 19 1 4 3 -2 6 -13 5 -11 0 -14 -3 -6 -6z"/>
<path d="M1150 2625 c0 -9 57 -33 160 -68 58 -19 114 -38 125 -42 l20 -7 -20
14 c-21 16 -159 71 -235 94 -52 16 -50 16 -50 9z"/>
<path d="M1270 2526 c0 -3 9 -10 20 -16 11 -6 20 -8 20 -6 0 3 -9 10 -20 16
-11 6 -20 8 -20 6z"/>
<path d="M2055 1893 c27 -35 50 -63 52 -63 7 0 -60 89 -80 107 -11 10 2 -10
28 -44z"/>
<path d="M2748 2243 c6 -2 18 -2 25 0 6 3 1 5 -13 5 -14 0 -19 -2 -12 -5z"/>
<path d="M2834 2217 c38 -23 105 -89 112 -109 3 -11 8 -17 11 -14 17 17 -99
137 -131 135 -6 0 -2 -6 8 -12z"/>
<path d="M2380 1797 c-1 -24 66 -132 111 -178 l51 -54 -44 52 c-25 28 -61 82
-81 120 -20 37 -37 64 -37 60z"/>
<path d="M2402 2060 c0 -14 2 -19 5 -12 2 6 2 18 0 25 -3 6 -5 1 -5 -13z"/>
<path d="M2412 2010 c0 -14 2 -19 5 -12 2 6 2 18 0 25 -3 6 -5 1 -5 -13z"/>
<path d="M4438 2383 c7 -3 16 -2 19 1 4 3 -2 6 -13 5 -11 0 -14 -3 -6 -6z"/>
<path d="M4508 2360 c24 -11 58 -30 75 -42 24 -17 28 -18 18 -4 -16 19 -103
66 -123 66 -7 0 6 -9 30 -20z"/>
<path d="M4635 2280 c10 -11 20 -20 23 -20 3 0 -3 9 -13 20 -10 11 -20 20 -23
20 -3 0 3 -9 13 -20z"/>
<path d="M1345 2220 c111 -23 187 -49 271 -93 76 -41 76 -31 0 13 -88 50 -266
102 -339 99 -12 0 19 -9 68 -19z"/>
<path d="M4406 1745 c43 -116 57 -186 58 -288 1 -83 3 -99 9 -70 18 80 -22
306 -64 363 -9 12 -9 11 -3 -5z"/>
<path d="M4451 1314 c0 -11 3 -14 6 -6 3 7 2 16 -1 19 -3 4 -6 -2 -5 -13z"/>
<path d="M3221 554 c0 -11 3 -14 6 -6 3 7 2 16 -1 19 -3 4 -6 -2 -5 -13z"/>
<path d="M522 5070 c-12 -27 -19 -50 -17 -50 2 0 19 23 39 50 31 43 33 50 17
50 -13 0 -25 -15 -39 -50z"/>
<path d="M1258 5086 c21 -19 49 -57 62 -85 12 -28 27 -48 32 -45 4 3 8 -5 8
-18 0 -23 47 -134 54 -127 2 2 -3 36 -11 74 -16 79 -14 198 5 217 10 10 18 8
42 -5 29 -18 30 -18 30 2 0 18 -6 21 -50 21 -57 0 -61 -5 -75 -95 l-8 -50 -9
50 c-18 102 -13 95 -68 95 l-50 0 38 -34z"/>
<path d="M1516 5108 c-35 -120 -50 -181 -60 -245 -8 -43 -15 -82 -17 -88 -6
-19 13 -115 22 -109 5 3 9 14 9 25 0 37 60 172 105 234 24 34 76 92 116 129
60 56 68 66 48 66 -14 0 -43 -19 -73 -46 -26 -25 -50 -43 -53 -40 -3 3 4 21
16 41 25 44 26 45 4 45 -13 -1 -38 -42 -87 -140 -39 -77 -71 -138 -72 -137 -5
5 32 140 54 200 12 32 22 62 22 67 0 15 -30 12 -34 -2z"/>
<path d="M1843 5100 c-46 -27 -41 -34 5 -8 46 27 48 28 36 28 -5 0 -24 -9 -41
-20z"/>
<path d="M2087 5113 c-2 -5 -7 -26 -10 -48 -4 -22 -4 -33 0 -25 3 8 14 30 25
48 16 27 17 32 4 32 -8 0 -17 -3 -19 -7z"/>
<path d="M2317 5113 c-2 -5 -10 -32 -17 -61 -23 -98 6 -199 97 -333 31 -46 74
-115 95 -154 22 -38 37 -61 33 -50 -4 11 -26 79 -50 150 -45 133 -80 287 -92
395 -6 58 -7 60 -34 60 -15 0 -30 -3 -32 -7z"/>
<path d="M2500 5098 c0 -13 22 -86 49 -163 l49 -140 22 75 c12 41 33 112 46
156 13 45 24 85 24 88 0 3 -29 6 -63 6 -51 0 -68 -4 -82 -20 -19 -21 -40 -17
-31 6 3 8 1 14 -4 14 -6 0 -10 -10 -10 -22z"/>
<path d="M3776 5022 c38 -110 59 -238 51 -315 l-4 -51 30 39 c53 69 153 162
213 201 33 20 61 38 63 40 2 2 -23 44 -55 94 l-58 90 -137 0 -137 0 34 -98z"/>
<path d="M4091 5108 c0 -7 15 -43 32 -80 28 -58 34 -65 50 -56 14 7 23 6 36
-6 15 -14 20 -13 51 6 19 11 70 48 113 82 63 50 73 62 56 64 -15 3 -38 -12
-76 -50 l-55 -53 21 42 c12 23 21 48 21 55 0 7 -14 -15 -31 -49 -41 -85 -64
-86 -56 -3 l5 60 -34 0 c-27 0 -34 -4 -34 -20 0 -13 -7 -20 -20 -20 -11 0 -25
9 -32 20 -14 22 -48 27 -47 8z"/>
<path d="M3722 4880 c0 -19 2 -27 5 -17 2 9 2 25 0 35 -3 9 -5 1 -5 -18z"/>
<path d="M3730 4778 c0 -57 -7 -113 -24 -203 -3 -16 1 -10 10 15 15 45 32 250
20 250 -3 0 -6 -28 -6 -62z"/>
<path d="M3222 4620 c0 -19 2 -27 5 -17 2 9 2 25 0 35 -3 9 -5 1 -5 -18z"/>
<path d="M3232 4529 c-1 -31 -4 -85 -7 -120 l-4 -64 10 55 c5 30 8 84 6 120
l-3 65 -2 -56z"/>
<path d="M4810 3065 c73 -144 92 -221 99 -390 6 -144 7 -147 15 -81 10 82 2
194 -20 279 -17 68 -82 208 -114 247 -11 14 -2 -11 20 -55z"/>
<path d="M5002 2570 c0 -14 2 -19 5 -12 2 6 2 18 0 25 -3 6 -5 1 -5 -13z"/>
<path d="M5 2569 c-4 -6 -5 -12 -2 -15 2 -3 7 2 10 11 7 17 1 20 -8 4z"/>
<path d="M210 2317 c-36 -13 -74 -29 -85 -36 -20 -12 -20 -12 0 -5 11 4 56 19
100 35 44 15 73 28 65 28 -8 0 -44 -10 -80 -22z"/>
<path d="M403 2315 c-150 -27 -279 -81 -361 -153 -36 -31 -43 -42 -40 -67 l3
-29 45 42 c25 23 68 53 95 67 75 38 271 107 292 103 11 -2 19 -14 21 -32 5
-38 -58 -98 -156 -149 -40 -21 -84 -50 -97 -65 -23 -25 -60 -120 -51 -129 2
-3 28 3 57 11 64 19 180 20 232 2 20 -8 54 -26 75 -42 22 -17 5 6 -45 60 -74
78 -95 106 -78 106 22 0 96 -51 152 -104 l67 -63 51 55 c27 31 69 67 92 82
l41 26 -41 12 c-24 6 -56 25 -75 45 l-33 34 -64 -23 c-35 -13 -87 -26 -117
-30 -29 -4 -63 -11 -75 -15 -17 -6 -23 -5 -23 5 0 16 155 119 206 138 19 7 34
18 34 25 0 13 17 17 55 13 33 -3 91 -46 126 -94 18 -26 35 -46 39 -46 13 0 32
92 26 125 -8 43 -35 62 -124 86 -79 22 -220 24 -329 4z"/>
<path d="M0 2240 c0 -25 4 -39 10 -35 13 8 13 62 0 70 -6 4 -10 -10 -10 -35z"/>
<path d="M730 2135 c13 -14 26 -25 28 -25 3 0 -5 11 -18 25 -13 14 -26 25 -28
25 -3 0 5 -11 18 -25z"/>
<path d="M170 2053 c-8 -3 -50 -19 -93 -35 l-77 -29 0 -91 0 -90 22 14 c16 11
25 29 28 59 3 24 11 54 18 65 12 22 59 67 102 96 26 18 26 20 0 11z"/>
<path d="M928 2010 c-65 -11 -141 -48 -216 -105 l-63 -47 31 -32 c16 -17 36
-40 44 -51 14 -20 16 -19 45 15 23 27 30 45 31 78 0 47 26 82 60 82 23 0 44
-43 37 -72 -6 -22 -6 -22 40 -3 48 20 73 43 66 61 -7 20 15 44 62 65 l40 19
-65 -1 c-36 -1 -86 -5 -112 -9z"/>
<path d="M79 1772 c-40 -21 -75 -45 -77 -53 -5 -12 -3 -12 11 0 10 7 50 31 90
52 39 21 67 39 60 39 -7 0 -45 -17 -84 -38z"/>
<path d="M502 1784 c-23 -15 -53 -68 -67 -114 -4 -16 5 -7 25 23 32 47 96 105
105 95 3 -3 -1 -55 -9 -116 -13 -100 -59 -249 -85 -275 -19 -19 -44 34 -49
103 l-5 70 -16 -32 c-38 -75 -76 -60 -75 30 0 65 18 104 76 175 l40 47 -44 -6
c-67 -9 -68 -10 -68 -54 0 -41 -36 -199 -66 -293 -19 -57 -35 -67 -110 -67
l-57 0 20 23 c28 30 37 49 77 159 42 116 69 171 99 198 l22 22 -40 -8 c-44 -7
-128 -38 -217 -77 l-58 -26 0 -78 c0 -75 0 -77 17 -53 32 49 79 92 151 141 40
27 74 49 76 49 2 0 -19 -54 -47 -121 -54 -129 -110 -205 -167 -229 -18 -8 -30
-20 -30 -31 0 -16 4 -18 28 -12 50 14 264 8 302 -8 33 -15 38 -14 75 5 33 17
58 21 141 21 99 0 101 0 88 20 -8 11 -14 31 -14 46 0 45 38 177 71 245 17 36
29 67 27 69 -1 2 -35 19 -75 39 -79 40 -107 44 -141 20z"/>
<path d="M751 1614 c0 -11 3 -14 6 -6 3 7 2 16 -1 19 -3 4 -6 -2 -5 -13z"/>
<path d="M2038 1493 c7 -3 16 -2 19 1 4 3 -2 6 -13 5 -11 0 -14 -3 -6 -6z"/>
<path d="M1988 1483 c6 -2 18 -2 25 0 6 3 1 5 -13 5 -14 0 -19 -2 -12 -5z"/>
<path d="M1948 1473 c7 -3 16 -2 19 1 4 3 -2 6 -13 5 -11 0 -14 -3 -6 -6z"/>
<path d="M1908 1463 c7 -3 16 -2 19 1 4 3 -2 6 -13 5 -11 0 -14 -3 -6 -6z"/>
<path d="M2129 1353 c-13 -16 -12 -17 4 -4 9 7 17 15 17 17 0 8 -8 3 -21 -13z"/>
<path d="M2012 1253 c-70 -69 -73 -74 -18 -24 108 98 121 111 114 111 -4 0
-47 -39 -96 -87z"/>
<path d="M1670 1275 c-36 -19 -61 -34 -57 -35 10 0 127 59 127 65 0 7 2 8 -70
-30z"/>
<path d="M1150 1061 c-5 -11 -10 -34 -10 -50 0 -17 -5 -39 -11 -49 -9 -14 -4
-38 26 -118 20 -54 41 -106 47 -114 7 -11 8 -10 3 5 -6 17 -23 231 -24 318 -1
31 -16 35 -31 8z"/>
<path d="M2481 981 c-15 -109 -58 -234 -107 -315 -79 -129 -205 -266 -279
-305 -22 -12 -34 -21 -28 -21 27 0 153 54 233 99 137 78 140 79 85 21 -75 -79
-187 -165 -258 -199 -34 -16 -102 -41 -152 -56 -77 -22 -96 -32 -129 -68 -41
-45 -93 -137 -76 -137 5 0 30 16 56 35 59 45 93 54 111 29 8 -10 12 -29 10
-41 -7 -40 11 -25 29 24 25 64 106 148 243 250 64 48 151 123 195 167 43 45
77 77 74 71 -49 -120 -145 -293 -184 -335 -46 -49 -90 -80 -113 -80 -6 0 23
52 64 115 41 63 71 115 66 115 -16 0 -168 -128 -199 -168 -36 -44 -82 -138
-82 -164 0 -13 8 -18 29 -18 22 0 30 6 35 24 11 44 67 41 81 -5 10 -31 59 -23
63 11 10 87 34 94 65 20 18 -43 25 -50 48 -50 26 0 28 4 34 48 25 186 81 310
205 455 51 60 94 106 96 104 3 -2 -12 -30 -31 -63 -42 -69 -55 -112 -55 -177
0 -40 -4 -49 -24 -58 -33 -15 -72 -91 -96 -185 -29 -112 -27 -124 13 -124 l34
0 18 103 c27 149 28 150 53 45 37 -151 48 -157 44 -25 -7 198 37 368 117 460
18 20 55 53 83 74 l51 37 -33 29 -32 29 -27 -25 c-44 -41 -118 -71 -147 -60
-18 7 -18 56 1 92 8 16 29 41 47 56 l33 28 -50 41 c-27 23 -84 74 -126 113
l-75 73 -13 -89z"/>
<path d="M0 1020 c0 -26 3 -30 28 -29 15 1 41 4 57 8 30 6 30 6 -22 29 -28 12
-54 22 -57 22 -3 0 -6 -13 -6 -30z"/>
<path d="M5065 1023 c-172 -49 -188 -55 -174 -64 8 -5 33 -9 56 -9 22 0 70 -9
104 -20 35 -10 65 -18 67 -16 1 2 2 31 0 63 l-3 60 -50 -14z"/>
<path d="M1726 954 c-4 -14 -25 -45 -48 -70 -22 -24 -39 -44 -36 -44 2 0 25 7
51 16 l47 16 0 54 c0 59 -4 68 -14 28z"/>
<path d="M0 904 l0 -35 50 27 c28 15 50 31 50 36 0 4 -22 8 -50 8 l-50 0 0
-36z"/>
<path d="M1896 789 c-31 -39 -56 -67 -56 -63 0 4 -8 0 -18 -9 -9 -8 -47 -29
-85 -46 -37 -17 -67 -32 -67 -35 0 -9 107 37 138 60 39 30 41 24 7 -21 -29
-38 -169 -138 -196 -140 -10 -1 -38 -27 -64 -58 -25 -31 -51 -57 -57 -57 -30
0 33 190 80 244 16 18 16 18 -7 6 -14 -7 -46 -33 -73 -58 -40 -37 -52 -57 -72
-121 -28 -92 -39 -154 -25 -145 6 3 21 3 35 0 18 -5 24 -13 24 -32 0 -25 -3
-26 -34 -21 -42 7 -46 -2 -45 -91 2 -131 13 -197 31 -200 15 -3 16 3 12 45
-13 111 46 269 132 355 26 26 79 67 117 90 113 68 157 118 225 251 33 64 59
117 57 117 -1 0 -28 -32 -59 -71z"/>
<path d="M1071 430 c14 -31 19 -36 19 -24 0 6 -7 19 -16 30 -14 18 -14 18 -3
-6z"/>
<path d="M1579 378 c-90 -125 -174 -378 -125 -378 9 0 15 21 19 69 7 80 46
188 106 285 45 75 46 86 0 24z"/>
<path d="M1094 305 c0 -50 1 -71 3 -48 2 23 2 64 0 90 -2 26 -3 8 -3 -42z"/>
<path d="M3416 320 c-2 -14 -7 -57 -9 -95 -4 -71 -24 -128 -67 -192 l-22 -33
50 0 50 0 17 50 c9 28 20 48 24 45 5 -2 16 -25 25 -50 10 -25 22 -45 27 -45 5
0 -4 27 -21 60 -31 61 -36 80 -22 80 11 0 62 -103 62 -124 0 -13 14 -16 75
-16 l75 0 -61 73 c-79 94 -162 204 -182 242 l-15 30 -6 -25z"/>
<path d="M3343 145 c0 -33 2 -45 4 -27 2 18 2 45 0 60 -2 15 -4 0 -4 -33z"/>
<path d="M510 146 c0 -5 17 -27 38 -50 20 -22 47 -54 59 -69 12 -16 28 -27 34
-25 6 2 -21 37 -59 78 -39 41 -71 71 -72 66z"/>
</g>
</svg>